#!OML:ASF H:\MichaelJackson\Top Level 1\Subject 1\Session 1\male.ASF
:FULLY-SPECIFIED
:DEGREES
782
root 18.3869 16.7166 19.5365 13.4637 163.831 -7.74649
lowerback 1.48892 -1.67557 2.28209
upperback 1.86397 -2.17245 0.721825
thorax 1.01831 -1.04153 -0.524279
lowerneck -7.01498 -2.48797 0.483025
upperneck 11.4353 -2.33205 -6.54961
head 4.48785 -1.39333 -2.22332
rclavicle -4.29375e-014 6.36111e-015
rhumerus -9.93473 40.3752 -49.9694
rradius 46.4052
rwrist 27.9698
rhand -24.5083 -12.2184
rfingers 7.12502
rthumb 1.98641 -402.189
lclavicle -4.29375e-014 6.36111e-015
lhumerus -46.3235 -5.66275 96.5098
lradius 53.6151
lwrist 12.8267
lhand -11.082 8.40048
lfingers 7.12502
lthumb 14.9415 37.8415
rfemur -40.7373 -21.424 16.9364
rtibia 46.215
rfoot -15.7579 -7.00872
rtoes -5.30355
lfemur -23.9762 3.6632 -15.746
ltibia 52.8879
lfoot -10.244 4.1309
ltoes -4.37977
783
root 18.3499 16.703 19.6078 13.3497 165.17 -7.83518
lowerback 1.38224 -1.67752 2.33456
upperback 1.91813 -2.17659 0.768186
thorax 1.1334 -1.04046 -0.510399
lowerneck -7.09943 -2.18562 0.656082
upperneck 11.8784 -1.85808 -6.81796
head 4.65036 -1.16665 -2.31461
rclavicle 3.97569e-015 2.70347e-014
rhumerus -10.5219 37.7284 -50.2571
rradius 45.8194
rwrist 27.9231
rhand -26.4908 -12.9854
rfingers 7.12502
rthumb 0.0717444 -402.965
lclavicle 3.97569e-015 2.70347e-014
lhumerus -46.3767 -5.96705 96.6364
lradius 53.4901
lwrist 12.3334
lhand -11.4613 8.79096
lfingers 7.12502
lthumb 14.5761 38.2588
rfemur -40.6288 -22.0658 16.8285
rtibia 46.2267
rfoot -15.7455 -7.6554
rtoes -4.80846
lfemur -23.3342 4.42389 -15.4493
ltibia 52.3823
lfoot -9.51393 5.17472
ltoes -4.92123
784
root 18.3129 16.6885 19.6773 13.2351 166.563 -7.88861
lowerback 1.26082 -1.66199 2.43043
upperback 1.96615 -2.15808 0.799866
thorax 1.24897 -1.02748 -0.536184
lowerneck -7.21747 -1.8858 0.865201
upperneck 12.4215 -1.38502 -7.04456
head 4.85167 -0.937969 -2.39982
rclavicle -1.90833e-014 -1.11319e-014
rhumerus -11.1723 35.0685 -50.5708
rradius 45.1765
rwrist 27.87
rhand -28.4871 -13.7217
rfingers 7.12502
rthumb -1.85632 -403.693
lclavicle -1.90833e-014 -1.11319e-014
lhumerus -46.3937 -6.29591 96.7246
lradius 53.3601
lwrist 12.0271
lhand -11.8356 9.29228
lfingers 7.12502
lthumb 14.2154 38.7858
rfemur -40.4791 -22.7667 16.7509
rtibia 46.2337
rfoot -15.7582 -8.30712
rtoes -4.25146
lfemur -22.7326 5.16446 -15.1247
ltibia 51.8123
lfoot -8.84493 6.18984
ltoes -5.89127
785
root 18.275 16.6728 19.7452 13.1253 168.01 -7.92023
lowerback 1.13138 -1.63096 2.5648
upperback 2.00173 -2.11957 0.819784
thorax 1.35512 -1.00413 -0.595445
lowerneck -7.36034 -1.58566 1.10384
upperneck 13.0281 -0.906968 -7.25353
head 5.07951 -0.704942 -2.48402
rclavicle -6.36111e-014 5.40694e-014
rhumerus -11.8777 32.3877 -50.8806
rradius 44.4781
rwrist 27.8667
rhand -30.4389 -14.4254
rfingers 7.12502
rthumb -3.74133 -404.372
lclavicle -6.36111e-014 5.40694e-014
lhumerus -46.3763 -6.62731 96.7749
lradius 53.2185
lwrist 11.8583
lhand -12.2022 9.84164
lfingers 7.12502
lthumb 13.8622 39.3597
rfemur -40.32 -23.5375 16.6923
rtibia 46.2647
rfoot -15.7966 -8.94658
rtoes -3.69185
lfemur -22.1915 5.85704 -14.7943
ltibia 51.1827
lfoot -8.29963 7.124
ltoes -7.33703
